<?xml version="1.0" encoding="utf-8"?>
<svg version="1.1" xmlns:xlink="http://www.w3.org/1999/xlink" width="12px" height="12px" viewBox="166 447  12 12" xmlns="http://www.w3.org/2000/svg">
  <path d="M 172 447  C 175.36 447  178 449.64  178 453  C 178 456.36  175.36 459  172 459  C 168.64 459  166 456.36  166 453  C 166 449.64  168.64 447  172 447  Z " fill-rule="nonzero" fill="#ffffff" stroke="none" />
  <path d="M 172 447.5  C 175.08 447.5  177.5 449.92  177.5 453  C 177.5 456.08  175.08 458.5  172 458.5  C 168.92 458.5  166.5 456.08  166.5 453  C 166.5 449.92  168.92 447.5  172 447.5  Z " stroke-width="1" stroke="#797979" fill="none" />
  <path d="M 172 456  C 170.32 456  169 454.68  169 453  C 169 451.32  170.32 450  172 450  C 173.68 450  175 451.32  175 453  C 175 454.68  173.68 456  172 456  " fill-rule="nonzero" fill="#797979" stroke="none" />
</svg>