<?xml version="1.0" encoding="utf-8"?>
<svg version="1.1" xmlns:xlink="http://www.w3.org/1999/xlink" width="12px" height="12px" viewBox="233 447  12 12" xmlns="http://www.w3.org/2000/svg">
  <path d="M 239 447  C 242.36 447  245 449.64  245 453  C 245 456.36  242.36 459  239 459  C 235.64 459  233 456.36  233 453  C 233 449.64  235.64 447  239 447  Z " fill-rule="nonzero" fill="#ffffff" stroke="none" />
  <path d="M 239 447.5  C 242.08 447.5  244.5 449.92  244.5 453  C 244.5 456.08  242.08 458.5  239 458.5  C 235.92 458.5  233.5 456.08  233.5 453  C 233.5 449.92  235.92 447.5  239 447.5  Z " stroke-width="1" stroke="#797979" fill="none" />
  <path d="M 239 456  C 237.32 456  236 454.68  236 453  C 236 451.32  237.32 450  239 450  C 240.68 450  242 451.32  242 453  C 242 454.68  240.68 456  239 456  " fill-rule="nonzero" fill="#797979" stroke="none" />
</svg>