<?xml version="1.0" encoding="utf-8"?>
<svg version="1.1" xmlns:xlink="http://www.w3.org/1999/xlink" width="12px" height="12px" viewBox="233 546  12 12" xmlns="http://www.w3.org/2000/svg">
  <path d="M 239 546  C 242.36 546  245 548.64  245 552  C 245 555.36  242.36 558  239 558  C 235.64 558  233 555.36  233 552  C 233 548.64  235.64 546  239 546  Z " fill-rule="nonzero" fill="#ffffff" stroke="none" />
  <path d="M 239 546.5  C 242.08 546.5  244.5 548.92  244.5 552  C 244.5 555.08  242.08 557.5  239 557.5  C 235.92 557.5  233.5 555.08  233.5 552  C 233.5 548.92  235.92 546.5  239 546.5  Z " stroke-width="1" stroke="#797979" fill="none" />
  <path d="M 239 555  C 237.32 555  236 553.68  236 552  C 236 550.32  237.32 549  239 549  C 240.68 549  242 550.32  242 552  C 242 553.68  240.68 555  239 555  " fill-rule="nonzero" fill="#797979" stroke="none" />
</svg>