<?xml version="1.0" encoding="utf-8"?>
<svg version="1.1" xmlns:xlink="http://www.w3.org/1999/xlink" width="12px" height="12px" viewBox="219 377  12 12" xmlns="http://www.w3.org/2000/svg">
  <path d="M 225 377  C 228.36 377  231 379.64  231 383  C 231 386.36  228.36 389  225 389  C 221.64 389  219 386.36  219 383  C 219 379.64  221.64 377  225 377  Z " fill-rule="nonzero" fill="#ffffff" stroke="none" />
  <path d="M 225 377.5  C 228.08 377.5  230.5 379.92  230.5 383  C 230.5 386.08  228.08 388.5  225 388.5  C 221.92 388.5  219.5 386.08  219.5 383  C 219.5 379.92  221.92 377.5  225 377.5  Z " stroke-width="1" stroke="#797979" fill="none" />
  <path d="M 225 386  C 223.32 386  222 384.68  222 383  C 222 381.32  223.32 380  225 380  C 226.68 380  228 381.32  228 383  C 228 384.68  226.68 386  225 386  " fill-rule="nonzero" fill="#797979" stroke="none" />
</svg>