<?xml version="1.0" encoding="utf-8"?>
<svg version="1.1" xmlns:xlink="http://www.w3.org/1999/xlink" width="12px" height="12px" viewBox="233 377  12 12" xmlns="http://www.w3.org/2000/svg">
  <path d="M 239 377  C 242.36 377  245 379.64  245 383  C 245 386.36  242.36 389  239 389  C 235.64 389  233 386.36  233 383  C 233 379.64  235.64 377  239 377  Z " fill-rule="nonzero" fill="#ffffff" stroke="none" />
  <path d="M 239 377.5  C 242.08 377.5  244.5 379.92  244.5 383  C 244.5 386.08  242.08 388.5  239 388.5  C 235.92 388.5  233.5 386.08  233.5 383  C 233.5 379.92  235.92 377.5  239 377.5  Z " stroke-width="1" stroke="#797979" fill="none" />
  <path d="M 239 386  C 237.32 386  236 384.68  236 383  C 236 381.32  237.32 380  239 380  C 240.68 380  242 381.32  242 383  C 242 384.68  240.68 386  239 386  " fill-rule="nonzero" fill="#797979" stroke="none" />
</svg>