<?xml version="1.0" encoding="utf-8"?>
<svg version="1.1" xmlns:xlink="http://www.w3.org/1999/xlink" width="12px" height="12px" viewBox="166 377  12 12" xmlns="http://www.w3.org/2000/svg">
  <path d="M 172 377  C 175.36 377  178 379.64  178 383  C 178 386.36  175.36 389  172 389  C 168.64 389  166 386.36  166 383  C 166 379.64  168.64 377  172 377  Z " fill-rule="nonzero" fill="#f0f0f0" stroke="none" />
  <path d="M 172 377.5  C 175.08 377.5  177.5 379.92  177.5 383  C 177.5 386.08  175.08 388.5  172 388.5  C 168.92 388.5  166.5 386.08  166.5 383  C 166.5 379.92  168.92 377.5  172 377.5  Z " stroke-width="1" stroke="#797979" fill="none" />
  <path d="M 172 386  C 170.32 386  169 384.68  169 383  C 169 381.32  170.32 380  172 380  C 173.68 380  175 381.32  175 383  C 175 384.68  173.68 386  172 386  " fill-rule="nonzero" fill="#797979" stroke="none" />
</svg>