<?xml version="1.0" encoding="utf-8"?>
<svg version="1.1" xmlns:xlink="http://www.w3.org/1999/xlink" width="56px" height="51px" xmlns="http://www.w3.org/2000/svg">
  <g transform="matrix(1 0 0 1 -33 -11 )">
    <path d="M 34 16  A 4 4 0 0 1 38 12 L 84 12  A 4 4 0 0 1 88 16 L 88 57  A 4 4 0 0 1 84 61 L 38 61  A 4 4 0 0 1 34 57 L 34 16  Z " fill-rule="nonzero" fill="#d7d7d7" stroke="none" fill-opacity="0" />
    <path d="M 33.5 16  A 4.5 4.5 0 0 1 38 11.5 L 84 11.5  A 4.5 4.5 0 0 1 88.5 16 L 88.5 57  A 4.5 4.5 0 0 1 84 61.5 L 38 61.5  A 4.5 4.5 0 0 1 33.5 57 L 33.5 16  Z " stroke-width="1" stroke-dasharray="3,1" stroke="#ecbd00" fill="none" stroke-dashoffset="0.5" />
  </g>
</svg>