<?xml version="1.0" encoding="utf-8"?>
<svg version="1.1" xmlns:xlink="http://www.w3.org/1999/xlink" width="28px" height="27px" xmlns="http://www.w3.org/2000/svg">
  <g transform="matrix(1 0 0 1 -38 -63 )">
    <path d="M 39 68  A 4 4 0 0 1 43 64 L 61 64  A 4 4 0 0 1 65 68 L 65 85  A 4 4 0 0 1 61 89 L 43 89  A 4 4 0 0 1 39 85 L 39 68  Z " fill-rule="nonzero" fill="#d7d7d7" stroke="none" fill-opacity="0" />
    <path d="M 38.5 68  A 4.5 4.5 0 0 1 43 63.5 L 61 63.5  A 4.5 4.5 0 0 1 65.5 68 L 65.5 85  A 4.5 4.5 0 0 1 61 89.5 L 43 89.5  A 4.5 4.5 0 0 1 38.5 85 L 38.5 68  Z " stroke-width="1" stroke-dasharray="3,1" stroke="#ecbd00" fill="none" stroke-dashoffset="0.5" />
  </g>
</svg>