<?xml version="1.0" encoding="utf-8"?>
<svg version="1.1" xmlns:xlink="http://www.w3.org/1999/xlink" width="10px" height="164.888888888889px" preserveAspectRatio="xMidYMin meet" viewBox="382.555555555556 276  8 164.888888888889" xmlns="http://www.w3.org/2000/svg">
  <path d="M 326 436.5  L 334.944444444444 436.5  A 0.0555555555555429 0.0555555555555429 0 0 0 335.5 436.444444444444 A 0.0555555555555429 0.0555555555555429 0 0 1 335.555555555556 436.388888888889 L 381.555555555556 436.388888888889  A 5 5 0 0 0 387.055555555556 431.388888888889 L 387.055555555556 286  A 5 5 0 0 1 392.055555555556 281.5 L 437 281.5  " stroke-width="1" stroke-dasharray="3,1" stroke="#0099cc" fill="none" />
  <path d="M 330 439  L 330 434  L 325 434  L 325 439  L 330 439  Z M 433 279  L 433 284  L 438 284  L 438 279  L 433 279  Z " fill-rule="nonzero" fill="#0099cc" stroke="none" />
</svg>