<?xml version="1.0" encoding="utf-8"?>
<svg version="1.1" xmlns:xlink="http://www.w3.org/1999/xlink" width="30.3333333333333px" height="10px" preserveAspectRatio="xMinYMid meet" viewBox="716.666666666667 350.111111111111  30.3333333333333 8" xmlns="http://www.w3.org/2000/svg">
  <path d="M 680 290.5  L 716.666666666667 290.5  A 5 5 0 0 1 722.166666666667 295.5 L 722.166666666667 349.111111111111  A 5 5 0 0 0 727.166666666667 354.611111111111 L 741.944444444444 354.611111111111  A 0.0555555555555429 0.0555555555555429 0 0 0 742.5 354.555555555556 A 0.0555555555555429 0.0555555555555429 0 0 1 742.555555555556 354.5 L 765 354.5  " stroke-width="1" stroke-dasharray="3,1" stroke="#0099cc" fill="none" />
  <path d="M 684 293  L 684 288  L 679 288  L 679 293  L 684 293  Z M 761 352  L 761 357  L 766 357  L 766 352  L 761 352  Z " fill-rule="nonzero" fill="#0099cc" stroke="none" />
</svg>