<?xml version="1.0" encoding="utf-8"?>
<svg version="1.1" xmlns:xlink="http://www.w3.org/1999/xlink" width="38.5402298850574px" height="10px" preserveAspectRatio="xMinYMid meet" viewBox="679 296  38.5402298850574 8" xmlns="http://www.w3.org/2000/svg">
  <path d="M 680 300.5  L 707.540229885057 300.5  A 5 5 0 0 1 713.040229885057 305.5 L 713.040229885057 418.827586206897  A 5 5 0 0 0 718.040229885057 424.327586206897 L 741.913793103448 424.327586206897  A 0.0862068965517153 0.0862068965517153 0 0 1 742.5 424.413793103448 A 0.0862068965517437 0.0862068965517437 0 0 0 742.586206896552 424.5 L 763 424.5  " stroke-width="1" stroke-dasharray="3,1" stroke="#0099cc" fill="none" />
  <path d="M 684 303  L 684 298  L 679 298  L 679 303  L 684 303  Z M 759 422  L 759 427  L 764 427  L 764 422  L 759 422  Z " fill-rule="nonzero" fill="#0099cc" stroke="none" />
</svg>