<?xml version="1.0" encoding="utf-8"?>
<svg version="1.1" xmlns:xlink="http://www.w3.org/1999/xlink" width="10px" height="103.206896551724px" preserveAspectRatio="xMidYMin meet" viewBox="1097.04597701149 337.793103448276  8 103.206896551724" xmlns="http://www.w3.org/2000/svg">
  <path d="M 1129 436.5  L 1106.04597701149 436.5  A 5 5 0 0 1 1101.54597701149 431.5 L 1101.54597701149 347.793103448276  A 5 5 0 0 0 1096.54597701149 343.293103448276 L 1068.3908045977 343.293103448276  A 0.103448275862064 0.103448275862064 0 0 0 1068.78735632184 343.396551724138 A 0.103448275862092 0.103448275862092 0 0 1 1068.68390804598 343.5 L 1008 343.5  " stroke-width="1" stroke-dasharray="3,1" stroke="#0099cc" fill="none" />
  <path d="M 1125 434  L 1125 439  L 1130 439  L 1130 434  L 1125 434  Z M 1012 346  L 1012 341  L 1007 341  L 1007 346  L 1012 346  Z " fill-rule="nonzero" fill="#0099cc" stroke="none" />
</svg>