<?xml version="1.0" encoding="utf-8"?>
<svg version="1.1" xmlns:xlink="http://www.w3.org/1999/xlink" width="12px" height="12px" viewBox="233 616  12 12" xmlns="http://www.w3.org/2000/svg">
  <path d="M 239 616  C 242.36 616  245 618.64  245 622  C 245 625.36  242.36 628  239 628  C 235.64 628  233 625.36  233 622  C 233 618.64  235.64 616  239 616  Z " fill-rule="nonzero" fill="#ffffff" stroke="none" />
  <path d="M 239 616.5  C 242.08 616.5  244.5 618.92  244.5 622  C 244.5 625.08  242.08 627.5  239 627.5  C 235.92 627.5  233.5 625.08  233.5 622  C 233.5 618.92  235.92 616.5  239 616.5  Z " stroke-width="1" stroke="#797979" fill="none" />
  <path d="M 239 625  C 237.32 625  236 623.68  236 622  C 236 620.32  237.32 619  239 619  C 240.68 619  242 620.32  242 622  C 242 623.68  240.68 625  239 625  " fill-rule="nonzero" fill="#797979" stroke="none" />
</svg>